<svg width="259" height="40" viewBox="0 0 259 40" fill="none" xmlns="http://www.w3.org/2000/svg">
<path d="M254.053 33.6842V0H258.79V33.6842H254.053Z" fill="#222523"/>
<path d="M235.21 33.6842V0H239.947V33.6842H235.21Z" fill="#222523"/>
<path d="M210.077 33.6839C207.877 33.6839 205.885 33.1948 204.102 32.2167C202.358 31.2009 200.992 29.809 200.006 28.0409C199.019 26.2727 198.526 24.2225 198.526 21.89V6.31543H203.647V21.6643C203.647 23.1315 203.894 24.4106 204.387 25.5015C204.918 26.5549 205.677 27.3637 206.663 27.928C207.649 28.4923 208.806 28.7745 210.134 28.7745C212.144 28.7745 213.718 28.1537 214.856 26.9123C215.994 25.6332 216.563 23.8839 216.563 21.6643V6.31543H221.684V21.89C221.684 24.2225 221.191 26.2727 220.205 28.0409C219.219 29.809 217.853 31.2009 216.108 32.2167C214.401 33.1948 212.391 33.6839 210.077 33.6839Z" fill="#222523"/>
<path d="M182.299 0C183.798 0.000102372 185.095 0.256047 186.192 0.766859C187.29 1.27774 188.296 2.02464 189.211 3.00987L185.972 6.18627C185.497 5.67573 184.968 5.29244 184.383 5.03701C183.798 4.74508 183.084 4.59912 182.243 4.5991C180.67 4.5991 179.445 5.05409 178.567 5.96628C177.726 6.87865 177.305 8.13931 177.305 9.74507V12.6316H184.554V17.3684H177.305V33.6842H172.368V9.74507C172.368 7.81114 172.788 6.13121 173.629 4.70806C174.47 3.24828 175.624 2.0976 177.087 1.25822C178.586 0.41923 180.324 0 182.299 0Z" fill="#222523"/>
<path d="M147.13 33.6839C144.93 33.6839 142.938 33.1948 141.155 32.2167C139.41 31.2009 138.045 29.809 137.058 28.0409C136.072 26.2727 135.579 24.2225 135.579 21.89V6.31543H140.7V21.6643C140.7 23.1315 140.947 24.4106 141.44 25.5015C141.971 26.5549 142.729 27.3637 143.716 27.928C144.702 28.4923 145.859 28.7745 147.186 28.7745C149.197 28.7745 150.771 28.1537 151.909 26.9123C153.047 25.6332 153.616 23.8839 153.616 21.6643V6.31543H158.737V21.89C158.737 24.2225 158.244 26.2727 157.258 28.0409C156.271 29.809 154.906 31.2009 153.161 32.2167C151.454 33.1948 149.443 33.6839 147.13 33.6839Z" fill="#222523"/>
<path d="M111.369 33.6838C108.794 33.6838 106.476 33.0757 104.416 31.8593C102.356 30.6429 100.719 29.0027 99.5052 26.9385C98.2913 24.8375 97.6843 22.4969 97.6843 19.9167C97.6843 17.3734 98.2913 15.0881 99.5052 13.0608C100.719 10.9966 102.356 9.35636 104.416 8.13999C106.476 6.92362 108.794 6.31543 111.369 6.31543C113.907 6.31543 116.206 6.92362 118.266 8.13999C120.363 9.31951 122.018 10.9413 123.232 13.0055C124.446 15.0696 125.053 17.3734 125.053 19.9167C125.053 22.4969 124.446 24.8375 123.232 26.9385C122.018 29.0027 120.363 30.6429 118.266 31.8593C116.206 33.0757 113.907 33.6838 111.369 33.6838ZM111.369 28.8736C113.024 28.8736 114.495 28.4866 115.783 27.7126C117.07 26.9385 118.082 25.888 118.818 24.561C119.553 23.1972 119.921 21.6491 119.921 19.9167C119.921 18.2212 119.535 16.7099 118.762 15.3829C118.027 14.056 117.015 13.0239 115.728 12.2867C114.477 11.5127 113.024 11.1256 111.369 11.1256C109.713 11.1256 108.242 11.5127 106.954 12.2867C105.667 13.0239 104.655 14.056 103.919 15.3829C103.184 16.7099 102.816 18.2212 102.816 19.9167C102.816 21.6491 103.184 23.1972 103.919 24.561C104.655 25.888 105.667 26.9385 106.954 27.7126C108.242 28.4866 109.713 28.8736 111.369 28.8736Z" fill="#222523"/>
<path d="M75.6969 30.2542L64 6.31543H69.6781L78.3656 25.0566H76.5486L85.6903 6.31543H91.3684L78.763 30.2542H75.6969ZM67.9747 39.9996L75.924 25.6564L78.763 30.2542L73.6528 39.9996H67.9747Z" fill="#222523"/>
<path d="M0 3C0 1.34315 1.37295 -0.0450383 2.95596 0.444082C7.03579 1.70467 10 5.50617 10 10V29.0909C10 29.593 10.407 30 10.9091 30C15.9299 30 20 25.9299 20 20.9091V10C20 4.47715 24.4772 0 30 0H37C38.6569 0 40 1.34315 40 3V20C40 31.0457 31.0457 40 20 40C8.95431 40 0 31.0457 0 20V3Z" fill="#D4ED92"/>
</svg>
