<svg width="259" height="41" viewBox="0 0 259 41" fill="none" xmlns="http://www.w3.org/2000/svg">
<path d="M258.89 0.100586V33.9844H253.953V0.100586H258.89Z" fill="#222523" stroke="#222523" stroke-width="0.2"/>
<path d="M240.047 0.100586V33.9844H235.111V0.100586H240.047Z" fill="#222523" stroke="#222523" stroke-width="0.2"/>
<path d="M203.747 6.41602V21.8643C203.747 23.3185 203.992 24.5817 204.477 25.6562L204.683 26.0342C205.189 26.8881 205.865 27.5561 206.713 28.041C207.682 28.5953 208.821 28.875 210.134 28.875C212.122 28.875 213.667 28.2616 214.782 27.0449C215.899 25.7891 216.463 24.0663 216.463 21.8643V6.41602H221.784V22.0898C221.784 24.4367 221.288 26.5049 220.292 28.29C219.297 30.0736 217.919 31.4782 216.158 32.5029V32.5039C214.434 33.4921 212.405 33.9843 210.077 33.9844C207.862 33.9844 205.853 33.4916 204.055 32.5049L204.052 32.5029C202.292 31.4782 200.913 30.0736 199.918 28.29C198.922 26.5049 198.427 24.4367 198.427 22.0898V6.41602H203.747Z" fill="#222523" stroke="#222523" stroke-width="0.2"/>
<path d="M182.298 0.100586C183.808 0.100689 185.122 0.357786 186.235 0.875977C187.344 1.39279 188.361 2.14808 189.283 3.1416L189.35 3.21289L189.281 3.28125L186.042 6.45801L185.969 6.5293L185.9 6.4541C185.433 5.95263 184.914 5.57853 184.343 5.3291L184.338 5.32715C183.77 5.04394 183.073 4.89949 182.243 4.89941C180.692 4.89941 179.494 5.34648 178.64 6.2334C177.82 7.12237 177.405 8.35706 177.405 9.94531V12.7314H184.654V17.6689H177.405V33.9844H172.269V9.94531C172.269 8.11851 172.64 6.5119 173.388 5.13086L173.542 4.85742C174.392 3.38265 175.559 2.22007 177.037 1.37207L177.038 1.37109C178.554 0.522751 180.309 0.100644 182.298 0.100586Z" fill="#222523" stroke="#222523" stroke-width="0.2"/>
<path d="M140.8 6.41602V21.8643C140.8 23.3185 141.044 24.5817 141.529 25.6562L141.735 26.0342C142.241 26.8881 142.918 27.5561 143.766 28.041C144.734 28.5953 145.873 28.875 147.187 28.875C149.175 28.875 150.72 28.2616 151.835 27.0449C152.952 25.7891 153.516 24.0663 153.516 21.8643V6.41602H158.837V22.0898C158.837 24.4367 158.34 26.5049 157.345 28.29C156.35 30.0736 154.971 31.4782 153.211 32.5029V32.5039C151.486 33.4921 149.458 33.9843 147.13 33.9844C144.915 33.9844 142.906 33.4916 141.107 32.5049L141.104 32.5029C139.344 31.4782 137.966 30.0736 136.971 28.29C135.975 26.5049 135.479 24.4367 135.479 22.0898V6.41602H140.8Z" fill="#222523" stroke="#222523" stroke-width="0.2"/>
<path d="M111.369 6.41602C113.923 6.41607 116.239 7.02759 118.315 8.25293L118.706 8.48145C120.634 9.64759 122.172 11.2059 123.318 13.1553C124.542 15.2357 125.153 17.5573 125.153 20.1172C125.153 22.7137 124.541 25.0714 123.318 27.1885V27.1895C122.096 29.2684 120.427 30.9197 118.316 32.1445L118.317 32.1455C116.241 33.3715 113.924 33.9843 111.369 33.9844C108.777 33.9844 106.442 33.3717 104.365 32.1455C102.29 30.9205 100.641 29.2681 99.4187 27.1895V27.1885C98.1955 25.0714 97.5848 22.7136 97.5847 20.1172C97.5847 17.5574 98.195 15.2538 99.4187 13.21C100.641 11.1313 102.29 9.47888 104.365 8.25391C106.442 7.02775 108.777 6.41602 111.369 6.41602ZM111.369 11.4258C109.73 11.4258 108.276 11.8085 107.006 12.5723L107.004 12.5732C105.732 13.3011 104.734 14.3205 104.007 15.6318C103.28 16.9422 102.916 18.4367 102.916 20.1172C102.916 21.8345 103.28 23.3656 104.007 24.7129L104.146 24.9551C104.86 26.1529 105.813 27.11 107.006 27.8271C108.276 28.5909 109.73 28.9736 111.369 28.9736C113.008 28.9736 114.461 28.5908 115.731 27.8271C117.003 27.0622 118.003 26.0246 118.73 24.7129C119.457 23.3656 119.821 21.8345 119.821 20.1172C119.821 18.4374 119.438 16.9439 118.676 15.6338L118.675 15.6318C117.947 14.3205 116.949 13.3011 115.677 12.5732L115.675 12.5723C114.442 11.8093 113.008 11.4258 111.369 11.4258Z" fill="#222523" stroke="#222523" stroke-width="0.2"/>
<path d="M69.7422 6.41602L69.7686 6.47363L77.4824 23.1143L85.6006 6.47168L85.6279 6.41602H91.5342L91.457 6.5625L78.8516 30.501L73.7412 40.2461L73.7129 40.2998H67.8047L67.8867 40.1514L74.4961 28.2246L63.9102 6.55957L63.8398 6.41602H69.7422Z" fill="#222523" stroke="#222523" stroke-width="0.2"/>
<path d="M0 3.20019C0 1.54334 1.37295 0.155157 2.95596 0.644277C7.03579 1.90487 10 5.70637 10 10.2002V29.2911C10 29.7932 10.407 30.2002 10.9091 30.2002C15.9299 30.2002 20 26.1301 20 21.1093V10.2002C20 4.67735 24.4772 0.200195 30 0.200195H37C38.6569 0.200195 40 1.54334 40 3.2002V20.2002C40 31.2459 31.0457 40.2002 20 40.2002C8.95431 40.2002 0 31.2459 0 20.2002V3.20019Z" fill="#D4ED92"/>
</svg>
