<svg width="705" height="62" viewBox="0 0 705 62" fill="none" xmlns="http://www.w3.org/2000/svg">
<path d="M2.71011e-06 31L64.6183 31C80.1944 31 95.6753 28.5734 110.504 23.8075L136.973 15.3005C166.822 5.70731 199.471 11.2325 224.502 30.1127C250.101 49.4221 283.627 54.7357 313.942 44.2882L318.509 42.7143C340.481 35.1421 364.404 35.4606 386.167 43.6151C415.402 54.5694 448.075 51.2391 474.499 34.6118L481.571 30.1611C511.841 11.1133 549.168 6.97727 582.873 18.9361L593.975 22.8751C609.13 28.2522 625.093 31 641.173 31L705 31" stroke="#222523" stroke-width="3"/>
<path opacity="0.2" d="M705 31L640.21 31C624.748 31 609.38 33.4088 594.66 38.1399L568.168 46.6541C538.263 56.2653 505.546 50.5967 480.618 31.4851C454.991 11.8381 421.187 6.4321 390.712 17.1071L386.507 18.5799C364.546 26.2723 340.572 25.9491 318.826 17.6674C289.645 6.55378 256.924 9.92167 230.618 26.7464L223.269 31.4464C193.128 50.7238 155.774 55.002 122.056 43.0386L110.867 39.0689C95.8164 33.7289 79.9638 31 63.9938 31L2.71781e-06 31" stroke="#222523" stroke-width="3"/>
</svg>
